<?xml version="1.0" standalone="no"?>
<!DOCTYPE svg PUBLIC "-//W3C//DTD SVG 20010904//EN"
 "http://www.w3.org/TR/2001/REC-SVG-20010904/DTD/svg10.dtd">
<svg version="1.0" xmlns="http://www.w3.org/2000/svg"
 width="402.000000pt" height="621.000000pt" viewBox="0 0 402.000000 621.000000"
 preserveAspectRatio="xMidYMid meet">

<g transform="translate(0.000000,621.000000) scale(0.100000,-0.100000)"
fill="#000000" stroke="none">
<path d="M417 5893 c-15 -279 -4 -364 50 -415 39 -36 63 -47 165 -75 196 -53
517 -208 727 -349 179 -120 377 -295 493 -435 l37 -44 42 50 c118 140 316 312
511 443 199 134 527 289 713 337 81 21 121 39 153 69 51 45 53 61 52 309 0
127 -3 233 -6 236 -2 3 -30 -20 -62 -51 -75 -73 -114 -96 -252 -148 -144 -53
-369 -166 -473 -237 l-79 -55 -87 41 c-323 150 -699 150 -1022 -1 l-87 -40
-64 45 c-88 63 -313 180 -438 227 -178 68 -221 92 -291 158 -36 34 -69 62 -71
62 -3 0 -8 -57 -11 -127z"/>
<path d="M836 5102 c-284 -350 -45 -862 402 -862 l85 0 283 -184 282 -183 282
183 282 184 90 0 c207 0 385 110 473 294 94 197 62 413 -88 589 l-23 28 -49
-21 c-79 -34 -81 -37 -36 -85 84 -91 123 -217 101 -328 -43 -221 -236 -361
-452 -326 -126 20 -251 118 -299 234 -12 30 -28 54 -33 52 -17 -5 -177 -247
-214 -322 l-33 -66 -44 85 c-53 104 -190 306 -208 306 -3 0 -19 -29 -35 -65
-110 -235 -409 -303 -609 -139 -169 139 -190 385 -46 561 24 29 43 55 43 58 0
4 -106 55 -114 55 0 0 -18 -21 -40 -48z"/>
<path d="M1081 4995 c-58 -66 -76 -112 -75 -195 0 -115 51 -197 149 -245 109
-54 246 -27 325 62 35 40 79 128 69 137 -86 70 -405 276 -428 276 -5 0 -23
-16 -40 -35z"/>
<path d="M2585 4993 c-116 -69 -221 -137 -285 -187 -36 -27 -66 -51 -67 -51
-2 -1 4 -22 13 -47 51 -150 234 -225 378 -154 163 80 205 293 85 429 -22 26
-46 47 -52 46 -7 0 -39 -17 -72 -36z"/>
<path d="M679 4313 c-184 -192 -259 -403 -259 -728 0 -315 72 -606 257 -1039
213 -500 671 -1144 1110 -1560 l91 -87 7 -67 c9 -95 33 -243 56 -342 30 -133
103 -360 115 -360 18 0 269 439 387 677 123 247 210 447 281 645 51 139 51
138 35 138 -27 0 -332 234 -454 349 -264 249 -502 592 -603 871 -129 357 -116
672 40 928 21 34 38 66 38 71 0 5 -126 85 -281 180 -241 147 -286 171 -321
171 -109 0 -264 69 -364 162 -34 32 -64 58 -66 58 -3 0 -34 -30 -69 -67z"/>
<path d="M2957 4316 c-93 -86 -255 -156 -360 -156 -34 0 -90 -31 -377 -206
l-338 -207 -32 -74 c-144 -344 -74 -781 192 -1206 172 -275 446 -558 738 -762
125 -87 314 -195 323 -186 5 5 -3 31 -17 59 -81 159 -107 499 -60 787 24 145
90 384 154 555 96 257 138 446 147 660 11 274 -43 487 -169 662 -34 47 -119
128 -135 128 -4 -1 -34 -25 -66 -54z"/>
</g>
</svg>
