<?xml version="1.0" standalone="no"?>
<!DOCTYPE svg PUBLIC "-//W3C//DTD SVG 20010904//EN"
 "http://www.w3.org/TR/2001/REC-SVG-20010904/DTD/svg10.dtd">
<svg version="1.0" xmlns="http://www.w3.org/2000/svg"
 width="624.000000pt" height="964.000000pt" viewBox="0 0 624.000000 964.000000"
 preserveAspectRatio="xMidYMid meet">

<g transform="translate(0.000000,964.000000) scale(0.100000,-0.100000)"
fill="#000000" stroke="none">
<path d="M5126 9279 c-104 -107 -252 -197 -376 -229 -25 -6 -58 -17 -75 -25
-16 -7 -65 -27 -107 -44 -173 -69 -455 -220 -600 -322 -53 -38 -102 -69 -108
-69 -6 0 -45 17 -88 39 -511 256 -1163 256 -1674 0 -43 -22 -82 -39 -88 -39
-6 0 -55 31 -108 69 -181 128 -570 320 -811 401 -140 47 -303 153 -374 245
-20 25 -35 35 -50 33 l-22 -3 0 -355 c0 -396 -1 -391 72 -471 48 -53 125 -90
243 -119 150 -36 498 -176 680 -273 385 -205 600 -350 885 -598 123 -107 285
-273 349 -356 26 -35 51 -63 56 -63 4 0 37 35 73 78 36 42 136 147 223 232
273 267 577 483 1004 713 127 68 545 233 667 263 179 45 259 96 303 197 20 46
21 63 21 395 -1 191 -1 350 -1 353 0 4 -6 9 -13 12 -8 3 -43 -25 -81 -64z"/>
<path d="M1288 7913 c-149 -188 -213 -427 -174 -651 41 -234 161 -421 355
-550 148 -100 333 -150 499 -138 l83 6 440 -286 439 -286 440 286 441 287 87
-7 c280 -20 570 123 727 361 103 155 139 276 138 465 0 106 -4 139 -27 215
-15 50 -45 124 -68 165 -48 91 -144 210 -167 210 -32 0 -176 -68 -179 -85 -2
-9 23 -44 56 -80 133 -142 187 -338 147 -530 -52 -242 -248 -434 -489 -476
-188 -32 -379 25 -526 157 -46 42 -118 149 -144 214 -25 63 -31 73 -44 78 -27
9 -335 -462 -373 -570 -13 -37 -29 -51 -29 -25 0 24 -96 209 -159 307 -85 131
-210 292 -223 288 -14 -5 -20 -17 -47 -88 -29 -75 -108 -180 -178 -235 -124
-98 -258 -141 -413 -132 -261 15 -481 188 -554 436 -58 198 -5 426 135 576 34
36 59 71 57 80 -3 16 -144 85 -173 85 -8 0 -43 -35 -77 -77z"/>
<path d="M1684 7762 c-174 -171 -176 -441 -5 -613 131 -130 316 -163 485 -86
62 29 146 102 183 161 19 30 63 136 63 151 0 2 -51 40 -112 87 -118 87 -295
202 -435 283 -46 26 -85 51 -89 56 -12 20 -44 7 -90 -39z"/>
<path d="M3975 7732 c-188 -112 -296 -184 -412 -275 -116 -90 -114 -82 -62
-193 56 -119 183 -213 323 -237 162 -28 335 51 426 194 38 59 70 163 70 229 0
56 -23 147 -51 202 -27 52 -126 158 -148 157 -9 0 -74 -35 -146 -77z"/>
<path d="M1049 6696 c-121 -127 -193 -231 -257 -371 -66 -145 -108 -298 -132
-486 -25 -194 -25 -319 0 -546 35 -319 126 -688 244 -991 222 -572 393 -899
759 -1447 305 -457 722 -956 1113 -1334 l138 -133 13 -132 c25 -265 98 -599
195 -896 47 -147 61 -175 80 -164 8 5 165 267 345 579 233 401 521 1024 688
1485 36 98 65 186 65 194 0 9 -7 16 -15 16 -41 0 -523 370 -713 549 -387 362
-772 918 -922 1326 -106 293 -147 533 -137 807 9 256 68 448 199 657 32 51 58
100 56 107 -2 7 -185 124 -408 260 -223 135 -412 252 -421 260 -8 8 -40 16
-70 19 -145 13 -220 30 -336 78 -90 37 -223 127 -298 202 -36 36 -71 64 -78
64 -6 -1 -55 -47 -108 -103z"/>
<path d="M4654 6759 c-164 -173 -403 -284 -644 -303 -53 -4 -83 -21 -550 -306
-272 -166 -506 -310 -520 -320 -35 -25 -113 -218 -144 -355 -41 -182 -54 -350
-39 -507 62 -652 416 -1300 1038 -1899 240 -231 525 -445 837 -627 208 -122
223 -121 163 6 -47 98 -79 203 -106 350 -20 109 -21 140 -16 437 6 358 15 431
96 750 64 254 83 315 180 575 92 246 133 391 186 661 22 112 27 172 32 369 5
208 3 251 -16 374 -50 324 -182 593 -373 760 -41 36 -80 66 -85 66 -5 0 -22
-14 -39 -31z"/>
</g>
</svg>
