<?xml version="1.0" standalone="no"?>
<!DOCTYPE svg PUBLIC "-//W3C//DTD SVG 20010904//EN"
 "http://www.w3.org/TR/2001/REC-SVG-20010904/DTD/svg10.dtd">
<svg version="1.0" xmlns="http://www.w3.org/2000/svg"
 width="780.000000pt" height="320.000000pt" viewBox="0 0 780.000000 320.000000"
 preserveAspectRatio="xMidYMid meet">

<g transform="translate(0.000000,320.000000) scale(0.100000,-0.100000)"
fill="#000000" stroke="none">
<path d="M262 2886 c4 -134 11 -148 96 -172 200 -58 410 -186 555 -337 l58
-61 45 52 c52 60 180 161 269 214 96 57 154 84 255 117 54 18 103 41 113 52
14 18 17 41 17 135 0 63 -3 114 -6 114 -4 0 -23 -15 -44 -34 -20 -18 -62 -41
-91 -51 -60 -19 -185 -81 -239 -118 l-34 -24 -51 22 c-137 61 -332 61 -469 1
l-50 -22 -80 48 c-45 27 -122 64 -172 83 -49 20 -105 49 -123 65 -18 17 -37
30 -42 30 -7 0 -10 -41 -7 -114z"/>
<path d="M2137 2973 c-4 -3 -7 -629 -7 -1390 l0 -1383 45 0 45 0 0 1390 0
1390 -38 0 c-21 0 -42 -3 -45 -7z"/>
<path d="M2961 2749 c-41 -126 -78 -226 -82 -222 -3 5 -27 76 -53 158 -26 83
-54 172 -63 199 -15 48 -15 50 7 68 22 18 21 18 -66 18 l-89 0 35 -18 c33 -18
38 -29 121 -263 48 -134 92 -257 99 -274 l12 -30 12 50 c19 77 130 405 137
405 3 0 12 -19 20 -43 47 -143 145 -407 152 -407 4 0 7 10 7 22 0 23 43 168
116 390 44 133 46 137 82 152 l37 15 -84 0 c-82 1 -83 1 -60 -17 l22 -19 -53
-184 c-29 -101 -56 -192 -59 -203 -5 -12 -32 51 -85 200 -43 121 -81 222 -85
226 -3 4 -39 -96 -80 -223z"/>
<path d="M3635 2972 c-147 -3 -157 -4 -127 -17 l32 -14 0 -254 c0 -259 -2
-276 -40 -290 -8 -3 61 -5 154 -4 l169 2 12 35 c28 82 29 87 3 50 -33 -49 -61
-60 -155 -60 l-83 0 0 125 0 125 70 0 c57 0 74 -4 90 -20 l20 -20 0 48 c-1 37
-3 43 -11 30 -8 -15 -24 -18 -89 -18 l-80 0 0 125 0 125 94 0 c97 0 109 -5
119 -45 2 -11 5 4 6 33 1 37 -3 51 -11 50 -7 -1 -85 -4 -173 -6z"/>
<path d="M4625 2967 c-90 -30 -135 -68 -177 -147 -19 -38 -23 -59 -23 -140 1
-83 4 -101 27 -146 51 -98 138 -148 258 -148 62 -1 85 4 130 26 73 36 100 74
106 146 3 43 2 49 -5 26 -4 -17 -19 -51 -32 -75 -71 -128 -270 -141 -367 -24
-86 105 -81 315 10 402 57 53 92 65 179 61 69 -3 81 -6 116 -34 21 -17 48 -48
61 -70 18 -30 22 -33 18 -14 -3 14 -7 41 -11 61 -5 33 -11 39 -58 59 -63 28
-174 36 -232 17z"/>
<path d="M5252 2966 c-143 -47 -221 -188 -192 -348 31 -169 171 -261 350 -229
145 26 230 134 230 292 0 125 -54 216 -159 269 -56 28 -168 36 -229 16z m181
-25 c38 -15 96 -70 120 -115 19 -35 22 -57 22 -146 0 -89 -3 -111 -22 -146
-76 -142 -256 -173 -363 -63 -90 93 -100 276 -22 392 40 60 94 87 174 87 37 0
78 -4 91 -9z"/>
<path d="M5830 2964 c0 -10 -14 -134 -30 -274 -32 -265 -37 -284 -84 -293 -11
-2 15 -4 59 -4 44 -1 73 1 63 4 -9 2 -19 10 -21 18 -7 17 25 405 34 405 3 0
50 -96 104 -212 54 -117 101 -217 105 -221 4 -5 11 4 14 20 9 36 189 434 194
428 2 -2 12 -95 22 -207 18 -202 18 -203 -2 -220 -19 -17 -17 -18 68 -17 49 1
79 4 68 6 -52 10 -61 47 -104 438 -18 166 -14 165 -84 9 -35 -76 -81 -178
-103 -225 -23 -47 -44 -96 -48 -108 -8 -27 -22 -27 -31 1 -8 28 -210 457 -218
465 -3 4 -6 -2 -6 -13z"/>
<path d="M6660 2970 c-85 -3 -149 -7 -142 -8 6 -1 21 -11 32 -22 19 -19 20
-33 20 -256 0 -245 -3 -268 -43 -284 -14 -6 39 -9 146 -9 l168 -1 13 33 c31
75 30 81 -7 40 l-35 -38 -96 -3 -96 -4 0 126 0 126 63 0 c80 0 102 -7 115 -33
9 -18 11 -10 11 43 1 59 -1 63 -12 40 -12 -23 -18 -25 -95 -28 l-82 -3 0 126
0 125 94 0 c87 0 96 -2 110 -22 16 -22 16 -21 16 20 0 28 -4 41 -12 40 -7 -1
-83 -5 -168 -8z"/>
<path d="M3977 2960 c39 -16 43 -39 43 -280 0 -241 -4 -264 -43 -280 -14 -6
40 -8 147 -7 l170 2 23 60 c28 72 29 79 4 40 -38 -62 -55 -70 -157 -73 l-94
-4 0 254 c0 230 2 256 18 270 9 9 24 18 32 21 8 3 -25 5 -75 6 -62 0 -83 -3
-68 -9z"/>
<path d="M7008 2956 l32 -15 0 -253 c0 -139 -4 -258 -8 -265 -4 -7 -19 -17
-32 -23 -19 -7 22 -9 155 -7 201 4 246 16 313 80 62 59 77 100 77 207 0 112
-17 154 -89 217 -66 58 -97 65 -301 70 -165 3 -177 2 -147 -11z m345 -32 c84
-42 128 -114 135 -220 8 -124 -42 -224 -133 -265 -31 -14 -65 -19 -152 -19
l-113 0 0 260 0 260 115 0 c87 0 124 -4 148 -16z"/>
<path d="M460 2561 c-81 -115 -61 -276 44 -353 54 -39 78 -48 145 -52 52 -3
68 -11 188 -90 l131 -87 132 87 c123 81 136 87 192 90 108 7 203 80 229 179
17 63 5 149 -28 203 -32 52 -49 60 -78 38 -18 -13 -19 -16 -4 -33 72 -81 62
-206 -21 -276 -36 -31 -83 -42 -147 -34 -64 7 -96 34 -148 122 -9 14 -20 3
-69 -74 l-59 -90 -34 57 c-19 31 -46 72 -60 90 l-25 33 -21 -42 c-53 -107
-203 -133 -290 -51 -56 53 -74 116 -52 190 8 27 24 57 35 67 26 24 25 29 -5
43 -34 15 -30 16 -55 -17z"/>
<path d="M572 2502 c-47 -65 -31 -142 38 -189 54 -37 116 -26 167 29 42 46 36
58 -66 126 -52 34 -100 62 -107 62 -7 0 -22 -13 -32 -28z"/>
<path d="M1245 2481 c-44 -27 -88 -58 -99 -70 -18 -20 -18 -21 3 -54 70 -114
241 -68 241 65 0 46 -30 108 -53 108 -7 0 -49 -22 -92 -49z"/>
<path d="M398 2197 c-296 -250 -71 -989 469 -1538 l94 -96 9 -71 c14 -107 63
-292 78 -292 10 0 131 206 185 315 50 101 87 184 129 295 25 67 27 76 12 85
-9 6 -64 48 -122 95 -183 147 -322 333 -383 515 -20 58 -24 90 -24 190 0 120
0 120 37 189 21 38 37 71 35 72 -1 1 -61 37 -133 81 -94 57 -145 82 -178 86
-55 8 -112 36 -145 71 -30 31 -29 31 -63 3z"/>
<path d="M1485 2200 c-31 -34 -102 -70 -152 -76 -37 -5 -85 -29 -207 -103
-180 -109 -187 -118 -206 -249 -20 -141 24 -306 125 -468 91 -146 314 -352
463 -428 42 -21 48 -16 28 21 -26 51 -39 160 -33 268 7 109 37 235 91 385 35
100 66 252 66 329 0 64 -24 171 -50 222 -21 41 -86 119 -100 119 -4 0 -15 -9
-25 -20z"/>
<path d="M3015 1880 c-102 -3 -150 -8 -132 -13 16 -4 32 -18 37 -33 14 -37 13
-457 -1 -488 -7 -14 -24 -30 -38 -35 -18 -7 26 -9 148 -8 l173 2 24 65 c13 36
18 56 11 46 -7 -11 -24 -33 -39 -50 -25 -30 -29 -31 -122 -34 l-96 -4 0 126 0
126 74 0 c69 0 76 -2 95 -26 l21 -27 0 64 c0 58 -1 62 -13 39 -12 -23 -18 -25
-95 -28 l-82 -3 0 126 0 125 94 0 c97 0 109 -5 119 -45 2 -11 5 4 6 33 1 36
-3 51 -11 50 -7 -1 -85 -5 -173 -8z"/>
<path d="M3388 1619 c3 -285 2 -291 -43 -309 -13 -6 11 -8 65 -8 47 0 75 3 62
5 -12 2 -27 13 -32 23 -6 12 -9 100 -8 226 l3 207 220 -233 220 -233 3 277 2
277 33 14 c31 14 29 14 -53 14 -82 0 -84 0 -52 -14 l32 -14 0 -218 -1 -218
-107 113 c-59 62 -159 169 -222 237 -63 68 -117 124 -120 124 -3 1 -4 -121 -2
-270z"/>
<path d="M4222 1871 c-72 -25 -121 -67 -155 -132 -72 -140 -29 -326 93 -401
113 -70 296 -54 378 33 24 25 28 39 32 111 5 77 6 83 30 89 14 4 -11 7 -60 7
-47 0 -76 -2 -65 -5 35 -8 45 -33 45 -108 0 -82 -6 -91 -85 -126 -109 -49
-230 -18 -292 74 -111 164 -33 416 138 447 100 19 197 -21 239 -98 l21 -37 -7
50 c-3 28 -10 56 -16 62 -17 21 -136 53 -192 53 -28 -1 -75 -9 -104 -19z"/>
<path d="M5521 1872 c-44 -24 -71 -74 -71 -132 0 -44 1 -47 115 -156 114 -110
115 -112 115 -157 0 -37 -5 -51 -30 -75 -70 -71 -176 -37 -198 63 l-9 40 -8
-49 c-5 -30 -4 -56 2 -65 29 -47 161 -62 222 -26 66 39 91 137 52 200 -10 17
-59 66 -109 110 -50 44 -95 92 -102 107 -23 51 11 117 68 131 33 8 89 -11 107
-36 15 -21 15 -21 15 15 0 32 -3 36 -31 42 -55 11 -103 7 -138 -12z"/>
<path d="M4718 1865 l32 -14 0 -261 0 -261 -32 -14 c-30 -13 -17 -14 141 -12
l174 2 23 65 c13 36 18 56 11 46 -6 -11 -24 -33 -39 -50 -25 -30 -29 -31 -122
-34 l-96 -4 0 262 0 261 33 14 c30 14 28 14 -63 14 -91 0 -93 0 -62 -14z"/>
<path d="M5170 1873 c50 -18 50 -20 50 -283 0 -263 0 -265 -50 -283 -8 -3 26
-5 75 -5 50 0 83 2 75 5 -50 18 -50 20 -50 283 0 263 0 265 50 283 8 3 -25 5
-75 5 -49 0 -83 -2 -75 -5z"/>
<path d="M5850 1869 c13 -6 28 -15 32 -22 4 -7 8 -123 8 -258 0 -262 0 -264
-50 -282 -8 -3 26 -5 75 -6 62 0 83 3 68 9 -35 14 -43 43 -43 159 l0 111 170
0 170 0 0 -118 c0 -124 -5 -138 -50 -155 -8 -3 28 -5 80 -5 52 0 85 3 73 5
-49 9 -53 30 -53 279 0 128 3 240 6 249 4 10 21 23 38 31 29 12 24 13 -64 13
-91 0 -93 0 -62 -14 l32 -14 0 -126 0 -125 -170 0 -170 0 0 118 c0 124 5 138
50 155 8 3 -25 5 -75 6 -69 0 -84 -3 -65 -10z"/>
<path d="M3490 790 c-80 -3 -137 -7 -128 -8 46 -6 48 -19 48 -278 0 -231 -1
-245 -20 -264 l-20 -20 158 0 158 0 22 60 c11 33 20 60 18 60 -2 0 -13 -16
-25 -35 -28 -47 -73 -65 -166 -65 l-75 0 0 125 0 125 73 0 c73 0 99 -10 110
-40 3 -8 5 14 5 50 0 36 -2 58 -5 50 -11 -30 -37 -40 -110 -40 l-73 0 0 130 0
130 90 0 c77 0 93 -3 110 -20 l20 -20 0 35 c0 30 -3 35 -22 33 -13 -1 -88 -5
-168 -8z"/>
<path d="M4430 528 c0 -275 0 -277 -22 -292 -21 -15 -19 -16 42 -16 61 0 63 1
42 16 -22 15 -22 19 -22 231 l0 216 78 -84 c42 -46 118 -127 167 -179 50 -52
117 -122 148 -155 l57 -60 0 276 c0 290 0 291 45 302 11 2 -18 5 -65 5 -47 0
-76 -3 -65 -5 44 -11 45 -15 45 -242 l-1 -216 -57 61 c-31 34 -115 124 -187
200 -71 76 -147 157 -167 179 l-38 40 0 -277z"/>
<path d="M5304 784 c-23 -64 -208 -503 -220 -522 -9 -13 -25 -27 -37 -32 -16
-6 -3 -9 48 -9 44 -1 65 3 56 8 -18 12 -10 59 22 134 l26 57 106 0 106 0 25
-57 c33 -73 39 -109 24 -128 -11 -13 -3 -15 59 -15 l72 0 -26 22 c-17 16 -61
108 -135 287 -61 146 -113 267 -115 269 -3 3 -8 -4 -11 -14z m59 -221 l45
-123 -99 0 c-54 0 -99 3 -99 8 -1 20 95 251 101 245 4 -5 27 -63 52 -130z"/>
<path d="M2880 781 c44 -12 48 -36 46 -286 -1 -214 -3 -235 -20 -254 l-19 -21
119 0 c96 0 127 4 161 20 108 49 113 207 7 264 -21 11 -41 22 -44 24 -2 2 8
13 22 25 35 29 48 58 48 102 0 51 -27 92 -75 115 -34 17 -61 20 -156 19 -63
-1 -103 -4 -89 -8z m194 -25 c47 -19 66 -51 66 -109 0 -42 -5 -54 -34 -83 -24
-24 -44 -34 -67 -35 -29 -1 -27 -2 13 -9 102 -17 146 -73 135 -168 -4 -35 -12
-53 -36 -74 -28 -25 -39 -28 -101 -28 l-70 0 0 260 0 260 30 0 c17 0 46 -6 64
-14z"/>
<path d="M3835 783 c45 -11 45 -13 45 -279 0 -250 0 -253 -22 -268 -21 -15
-19 -16 45 -16 l68 0 -21 22 c-20 21 -20 32 -18 273 l3 250 52 3 c98 6 153
-43 153 -136 0 -62 -34 -104 -101 -122 l-55 -15 23 -20 c13 -11 50 -58 82
-105 74 -108 114 -141 178 -147 l48 -5 -30 17 c-39 21 -69 53 -138 146 -30 43
-61 80 -67 84 -8 5 4 16 31 29 113 57 118 223 8 278 -28 15 -59 18 -169 17
-74 -1 -126 -4 -115 -6z"/>
<path d="M5675 783 c43 -10 45 -25 45 -284 0 -245 0 -248 -22 -263 -21 -15
-10 -16 138 -16 l161 0 22 56 c27 70 26 75 -2 33 -34 -51 -78 -69 -169 -69
l-78 0 0 253 c0 138 4 257 8 264 4 7 19 16 32 22 19 7 4 10 -65 9 -49 0 -81
-2 -70 -5z"/>
</g>
</svg>
